<?xml version="1.0" encoding="utf-8"?>
<!-- Generator: Adobe Illustrator 23.0.3, SVG Export Plug-In . SVG Version: 6.00 Build 0)  -->
<svg version="1.1" id="图层_1" xmlns="http://www.w3.org/2000/svg" xmlns:xlink="http://www.w3.org/1999/xlink" x="0px" y="0px"
	 viewBox="0 0 643.2 87" style="enable-background:new 0 0 643.2 87;" xml:space="preserve">
<style type="text/css">
	.st0{clip-path:url(#SVGID_2_);}
	.st1{fill:#D7F0D3;}
	.st2{fill:#CE4141;}
	.st3{font-family:'PingFang-SC-Heavy';}
	.st4{font-size:75.9479px;}
</style>
<g>
	<defs>
		<rect id="SVGID_1_" x="215.2" width="428" height="87"/>
	</defs>
	<clipPath id="SVGID_2_">
		<use xlink:href="#SVGID_1_"  style="overflow:visible;"/>
	</clipPath>
	<g class="st0">
		<path class="st1" d="M444.6,73.9h0.2c0.3,0,0.5,0.3,0.8,1c0.3,0.8,0.4,1.6,0.4,2.4c0,0.2,0,0.5-0.2,0.7c0,0.1-0.1,0.1-0.2,0.2
			c-0.1,0-0.2,0.1-0.3,0.1c-0.4,0-0.7-0.3-1-0.9V77c-0.1-0.3-0.4-0.6-0.7-0.8c-0.3-0.2-0.7-0.3-1-0.3c-0.2-0.1-0.5-0.1-0.7,0
			c-0.1,0.1-0.1,0.2-0.2,0.3c0,0.1-0.1,0.2-0.1,0.3c0,0.1,0,0.5,0,1.1c0,0.6,0,1.2,0,1.9c0,1.5,0,2.7,0,3.6c0,0.6,0,1.2,0.1,1.7
			c0,0.1,0.2,0.2,0.5,0.4c0.2,0.1,0.4,0.2,0.5,0.3c0.1,0.1,0.1,0.3,0.1,0.4c0,0.3-0.2,0.5-0.6,0.7c-0.7,0.2-1.5,0.2-2.2,0.2
			c-0.7,0-1.5,0-2.2-0.2c-0.4-0.1-0.6-0.4-0.6-0.7c0-0.2,0.1-0.3,0.1-0.4c0.1-0.1,0.2-0.2,0.4-0.3c0.2-0.1,0.4-0.2,0.6-0.3
			c0.2-0.5,0.2-1,0.2-1.6c0-0.9,0-2.2,0-3.8c0-0.7,0-1.4,0-1.9c0-0.6,0-0.9,0-1.1c0-0.2-0.1-0.4-0.3-0.6c-0.3-0.1-0.5-0.1-0.8,0
			c-0.4,0-0.7,0.1-1.1,0.3c-0.3,0.2-0.6,0.5-0.7,0.8l-0.1,0.3c-0.3,0.6-0.6,0.9-1,0.9c-0.1,0-0.2,0-0.3-0.1c-0.1,0-0.2-0.1-0.2-0.2
			c-0.1-0.2-0.2-0.5-0.1-0.7c0-0.8,0.1-1.6,0.4-2.4c0.2-0.7,0.5-1,0.8-1h0.2c0.4,0.1,0.8,0.2,1.2,0.2h7.1
			C444,74,444.3,74,444.6,73.9z"/>
		<path class="st1" d="M450.1,79c0,0,0.2,0,0.3-0.3l0.2-0.2c0.3-0.3,0.6-0.6,1-0.7c0.6-0.2,1.3-0.3,2-0.2c0.7,0.1,1.3,0.4,1.8,0.9
			c0.6,0.9,0.8,2,0.7,3.1v1.5c0,0.7,0,1.1,0,1.4c0,0.2,0,0.3,0,0.5c0.1,0.1,0.3,0.2,0.5,0.3c0.1,0.1,0.2,0.1,0.3,0.2
			c0.1,0.1,0.1,0.2,0.1,0.4c0,0.3-0.2,0.5-0.5,0.6c-0.6,0.1-1.3,0.2-2,0.2c-0.7,0-1.3,0-2-0.2c-0.4-0.1-0.5-0.3-0.5-0.6
			s0.2-0.5,0.5-0.6l0.3-0.2c0.1-0.1,0.2-0.3,0.2-0.5c0-0.5,0-0.9,0-1.4c0.1-0.9,0-1.9-0.3-2.8c-0.1-0.2-0.3-0.4-0.5-0.5
			c-0.2-0.1-0.4-0.2-0.7-0.1c-0.3,0-0.5,0-0.8,0.2c-0.2,0.1-0.4,0.3-0.5,0.6c-0.3,0.7-0.5,1.6-0.4,2.4c0,0.7,0,1.1,0,1.4
			c0,0.2,0,0.4,0.1,0.6c0.1,0.1,0.3,0.2,0.5,0.3c0.1,0.1,0.2,0.1,0.3,0.3c0.1,0.1,0.1,0.2,0.1,0.4c0,0.3-0.2,0.5-0.5,0.6
			c-0.6,0.1-1.3,0.2-2,0.2c-0.7,0-1.3,0-2-0.2c-0.4-0.1-0.5-0.3-0.5-0.6c0-0.3,0.2-0.5,0.5-0.6l0.3-0.2c0.1-0.3,0.2-0.6,0.2-0.9
			c0-0.5,0-1.9,0-4c0-1.7,0-2.8,0-3.3c0-0.3-0.1-0.6-0.3-0.9l-0.5-0.2c-0.3,0-0.5-0.3-0.5-0.5c0-0.1,0-0.2,0.1-0.2
			c0-0.1,0.1-0.1,0.2-0.2c0.2-0.2,0.5-0.4,0.8-0.5c0.5-0.2,0.9-0.4,1.4-0.5c0.4-0.1,0.8-0.2,1.2-0.2c0.2,0,0.4,0,0.5,0.2
			c0.1,0.2,0.2,0.5,0.1,0.7c0,0.3,0,0.8,0,1.6c0,0.8,0,1.4,0,1.9v0.6c0,0.1,0,0.1,0.1,0.2C450,79,450.1,79,450.1,79L450.1,79z"/>
		<path class="st1" d="M461.4,82.4c-0.1,0-0.3,0-0.4,0c0,0.1,0,0.1,0,0.2c0,0.3,0.1,0.6,0.2,0.9c0.1,0.3,0.3,0.5,0.5,0.7
			c0.2,0.2,0.5,0.4,0.7,0.5c0.3,0.1,0.6,0.2,0.9,0.2c0.5,0,1-0.1,1.5-0.4c0.3-0.2,0.6-0.3,0.9-0.4c0.1,0,0.3,0,0.4,0.1
			c0.1,0,0.1,0.1,0.1,0.2c0,0.1,0.1,0.1,0.1,0.2c0,0.2-0.1,0.4-0.2,0.6c-0.2,0.2-0.4,0.4-0.6,0.6c-0.4,0.3-0.9,0.6-1.4,0.8
			c-0.5,0.2-1.1,0.3-1.7,0.3c-0.7,0.1-1.4,0.1-2.1,0c-0.7-0.2-1.3-0.5-1.9-0.9c-0.6-0.4-1-1-1.3-1.6c-0.3-0.6-0.5-1.3-0.5-2
			c0-0.7,0.2-1.4,0.5-2c0.3-0.6,0.8-1.2,1.3-1.6c0.6-0.4,1.2-0.8,1.9-0.9c0.7-0.2,1.4-0.2,2.1,0c1.1,0,2.1,0.3,2.9,1
			c0.4,0.3,0.7,0.7,0.9,1.1c0.2,0.4,0.3,0.9,0.3,1.4c0,0.3,0,0.7-0.2,1c-0.1,0.1-0.2,0.2-0.3,0.2c-0.1,0-0.2,0.1-0.4,0L461.4,82.4z
			 M463.5,81.1c0.1,0,0.2,0,0.3,0c0,0,0,0,0-0.2c0-0.5-0.1-0.9-0.4-1.3c-0.1-0.2-0.3-0.3-0.5-0.4c-0.2-0.1-0.4-0.1-0.6-0.1
			c-0.2,0-0.4,0-0.6,0.1c-0.2,0.1-0.3,0.2-0.4,0.4c-0.3,0.4-0.4,0.8-0.4,1.3c0,0,0,0.1,0,0.1c0,0,0,0.1,0,0.1h0.3L463.5,81.1z"/>
		<path class="st1" d="M477,86.7c-0.8-0.2-1.6-0.7-2.3-1.2c-0.7-0.6-1.2-1.3-1.6-2c-0.5-1-0.7-2.1-0.7-3.2c0-0.7,0.1-1.4,0.3-2.1
			c0.2-0.7,0.5-1.3,1-1.8c0.6-0.8,1.4-1.4,2.4-1.8c1.7-0.7,3.5-0.8,5.3-0.3c0.7,0.2,1.3,0.6,1.9,1c0.8,0.6,1.4,1.4,1.9,2.4
			c0.5,1,0.7,2.1,0.7,3.1c0,0.7-0.1,1.4-0.3,2c-0.2,0.6-0.5,1.2-0.9,1.8c-0.6,0.8-1.4,1.5-2.4,1.9c-1,0.4-2,0.7-3.1,0.6
			C478.4,87,477.7,86.9,477,86.7L477,86.7z M481.9,79.3c-0.2-0.7-0.5-1.4-0.9-2c-0.3-0.5-0.7-0.9-1.2-1.3c-0.4-0.3-0.9-0.4-1.3-0.4
			c-0.4,0-0.7,0.1-1.1,0.3s-0.6,0.4-0.8,0.7c-0.5,0.8-0.7,1.7-0.7,2.6c0,0.8,0.1,1.6,0.3,2.4c0.2,0.7,0.5,1.4,1,2.1
			c0.3,0.5,0.7,0.9,1.2,1.2c0.4,0.3,0.9,0.4,1.4,0.4c0.4,0,0.7-0.1,1.1-0.2c0.3-0.2,0.6-0.4,0.8-0.7c0.5-0.8,0.8-1.7,0.7-2.6
			C482.2,80.9,482.1,80.1,481.9,79.3L481.9,79.3z"/>
		<path class="st1" d="M491.7,78.6c0,0.1,0,0.2,0,0.3c0,0.3,0,0.5,0,0.8c0,0-0.2,0.1-0.5,0.1h-0.6c-0.1,0-0.2,0-0.3,0
			c0,0.1,0,0.3,0,0.5V82c0,1,0,1.7,0,2.1c0,0.3,0,0.5,0.1,0.8c0.2,0.2,0.4,0.3,0.6,0.3c0.4,0.1,0.5,0.3,0.5,0.6
			c0,0.2-0.2,0.5-0.6,0.6c-0.7,0.1-1.4,0.2-2.1,0.2c-0.7,0-1.3,0-2-0.2c-0.4-0.1-0.5-0.3-0.5-0.6c0-0.1,0.1-0.3,0.1-0.4
			c0.1-0.1,0.2-0.2,0.3-0.3c0.2-0.1,0.3-0.2,0.5-0.3c0.1-0.2,0.2-0.5,0.1-0.8c0-0.4,0-1.1,0-2.1v-1.9c0-0.2,0-0.3-0.4-0.4h-0.6
			c-0.1,0-0.1,0-0.2,0c0,0-0.1-0.1-0.1-0.1c0-0.2,0-0.5,0-0.7c0-0.3,0.2-0.4,0.5-0.4h0.4c0.1,0,0.2,0,0.2,0c0-0.1,0-0.2,0-0.3
			c0,0,0-0.2,0-0.5c0-0.3,0-0.6,0-0.9c0-0.4,0-0.8,0.2-1.2c0.1-0.4,0.4-0.7,0.6-1c0.7-0.6,1.5-0.8,2.4-0.8c0.7,0,1.4,0.1,2,0.5
			c0.2,0.1,0.4,0.3,0.6,0.5c0.1,0.2,0.2,0.5,0.2,0.7c0,0.1,0,0.3-0.1,0.4c0,0.1-0.1,0.3-0.2,0.4c-0.1,0.1-0.2,0.2-0.3,0.2
			c-0.1,0-0.3,0.1-0.4,0.1c-0.2,0-0.5-0.1-0.7-0.2c-0.2-0.2-0.4-0.5-0.6-0.8c-0.1-0.2-0.2-0.4-0.4-0.6c-0.1-0.1-0.3-0.1-0.4-0.1
			c-0.1,0-0.2,0-0.3,0s-0.2,0.1-0.2,0.1c-0.1,0.1-0.2,0.3-0.2,0.5c0.1,0.4,0.3,0.8,0.5,1.2c0.3,0.5,0.5,1.1,0.5,1.7h1
			C491.6,78.6,491.7,78.6,491.7,78.6z"/>
		<path class="st1" d="M501.1,78.2h0.5c0.1,0,0.2,0,0.2,0c0.1,0,0.1,0.1,0.2,0.1c0.1,0.2,0.1,0.5,0,0.7v0.3c0,0.8,0,1.5,0,2.4v1.2
			c0,0.6,0,1.2,0,1.9c0,0.1,0,0.2,0,0.3c0,0.1,0.1,0.2,0.1,0.2l0.3,0.2c0.4,0.2,0.5,0.4,0.5,0.6c0,0.3-0.2,0.5-0.5,0.6
			c-0.6,0.1-1.3,0.2-2,0.2c-0.7,0-1.3,0-2-0.2c-0.4-0.1-0.5-0.3-0.5-0.6c0-0.3,0.2-0.5,0.5-0.6l0.3-0.2c0.1-0.1,0.2-0.3,0.2-0.5
			c0-0.2,0-0.8,0-1.6c0-0.9,0-1.4,0-1.9c0-0.3,0-0.6,0-0.9c0-0.1-0.1-0.1-0.1-0.2c0,0-0.1-0.1-0.2-0.1c-0.3-0.1-0.5-0.1-0.8,0h-1.5
			c-0.1,0-0.2,0-0.3,0c0,0.1,0,0.3,0,0.5v1.7c0,1,0,1.7,0,2.1c0,0.3,0,0.5,0.1,0.8c0.1,0.1,0.3,0.2,0.5,0.3c0.1,0.1,0.2,0.1,0.3,0.3
			c0.1,0.1,0.1,0.2,0.1,0.4c0,0.3-0.2,0.5-0.5,0.6c-0.6,0.1-1.3,0.2-2,0.2c-0.7,0-1.3,0-2-0.2c-0.4-0.1-0.5-0.3-0.5-0.6
			c0-0.1,0.1-0.3,0.1-0.4c0.1-0.1,0.2-0.2,0.3-0.3c0.2-0.1,0.3-0.2,0.5-0.3c0.1-0.2,0.1-0.5,0.1-0.8c0-0.4,0-1.1,0-2.1v-1.9
			c0-0.2-0.1-0.3-0.4-0.4h-0.6c-0.1,0-0.1,0-0.2-0.1c0,0-0.1-0.1-0.1-0.1c0-0.2,0-0.5,0-0.7c0-0.1,0-0.2,0-0.3c0.1,0,0.2,0,0.3,0
			h0.8c0-0.3,0-0.6,0-0.9c0-0.5,0.1-0.9,0.3-1.4c0.3-0.8,0.8-1.4,1.5-1.8c0.9-0.4,1.8-0.7,2.8-0.6c0.9,0,1.8,0.2,2.6,0.6
			c0.3,0.1,0.5,0.4,0.7,0.7c0.2,0.3,0.3,0.6,0.3,0.9c0,0.3-0.1,0.7-0.3,0.9c-0.1,0.1-0.3,0.2-0.4,0.3c-0.2,0.1-0.3,0.1-0.5,0.1
			c-0.2,0-0.3,0-0.5-0.1c-0.2-0.1-0.3-0.2-0.4-0.3c-0.1-0.1-0.2-0.2-0.3-0.4c-0.1-0.2-0.1-0.3-0.1-0.5c0-0.1,0-0.2,0-0.3
			c0-0.1,0.1-0.3,0.1-0.4l-0.6-0.2h-0.6c-0.3,0-0.5,0-0.8,0.1c-0.2,0.1-0.4,0.3-0.6,0.5c-0.3,0.6-0.5,1.3-0.4,1.9c0,0.2,0,0.5,0,0.9
			h2.4C499.2,78.8,500.2,78.5,501.1,78.2L501.1,78.2z"/>
		<path class="st1" d="M505.2,78.9c0.5-0.4,1-0.8,1.6-1c0.6-0.2,1.3-0.3,1.9-0.3c0.9,0,1.8,0.2,2.5,0.7c0.3,0.2,0.6,0.5,0.7,0.8
			c0.2,0.3,0.3,0.7,0.3,1c0,0.2,0,0.4-0.1,0.5c-0.1,0.2-0.2,0.3-0.3,0.5c-0.1,0.1-0.3,0.2-0.5,0.3s-0.4,0.1-0.5,0.1
			c-0.2,0-0.3,0-0.5-0.1c-0.1-0.1-0.3-0.1-0.4-0.2c-0.3-0.4-0.6-0.9-0.8-1.4c-0.1-0.2-0.2-0.4-0.4-0.5c-0.2-0.1-0.4-0.2-0.7-0.2
			c-0.2,0-0.4,0-0.6,0.1c-0.2,0.1-0.3,0.2-0.4,0.4c-0.3,0.5-0.4,1-0.4,1.5c0,0.9,0.2,1.9,0.8,2.6c0.2,0.3,0.5,0.6,0.8,0.8
			c0.3,0.2,0.7,0.3,1.1,0.3c0.5,0,0.9-0.1,1.3-0.4c0.3-0.2,0.6-0.3,0.9-0.3c0.2,0,0.3,0,0.5,0.1c0.1,0.1,0.1,0.1,0.1,0.2
			c0,0.1,0,0.2,0,0.2c0,0.2-0.1,0.4-0.2,0.5c-0.1,0.2-0.3,0.4-0.5,0.5c-0.4,0.4-1,0.7-1.5,0.9c-0.5,0.2-1.1,0.3-1.6,0.3
			c-0.6,0-1.2-0.1-1.8-0.3c-0.6-0.2-1.1-0.5-1.5-1c-0.4-0.4-0.8-0.9-1-1.5c-0.2-0.6-0.3-1.2-0.3-1.8c0-0.6,0.1-1.3,0.4-1.9
			C504.4,79.9,504.7,79.4,505.2,78.9z"/>
		<path class="st1" d="M516.9,83.3c0,0.7,0,1.2,0,1.4c0,0.2,0.1,0.3,0.2,0.5l0.3,0.2c0.4,0.2,0.5,0.4,0.5,0.6c0,0.3-0.2,0.5-0.5,0.6
			c-0.6,0.1-1.3,0.2-2,0.2c-0.7,0-1.3,0-2-0.2c-0.4-0.1-0.5-0.3-0.5-0.6s0.2-0.5,0.5-0.6l0.3-0.2c0.1-0.1,0.2-0.3,0.2-0.5
			c0-0.3,0-0.8,0-1.6c0-0.8,0-1.6,0-2.4c0-0.2-0.1-0.5-0.2-0.6l-0.5-0.2c-0.1,0-0.3-0.1-0.3-0.2c-0.1-0.1-0.1-0.2-0.1-0.4
			c0-0.1,0-0.1,0.1-0.2c0-0.1,0.1-0.1,0.1-0.2c0.1-0.1,0.3-0.3,0.5-0.4c0.5-0.2,1-0.4,1.6-0.6c0.4-0.1,0.9-0.2,1.3-0.2
			c0.2,0,0.4,0,0.5,0.1c0.1,0.2,0.1,0.4,0,0.7v0.4c0,0.8,0,1.5,0,2.2L516.9,83.3z M513.9,74.3c0.4-0.3,0.9-0.5,1.4-0.5
			c0.5,0,0.9,0.1,1.3,0.4c0.2,0.1,0.3,0.3,0.4,0.4c0.1,0.2,0.1,0.4,0.1,0.5c0,0.2-0.1,0.4-0.2,0.6c-0.1,0.2-0.2,0.3-0.4,0.4
			c-0.4,0.3-0.9,0.4-1.4,0.4c-0.5,0-0.9-0.1-1.3-0.4c-0.2-0.1-0.3-0.2-0.4-0.4s-0.1-0.3-0.1-0.5c0-0.2,0.1-0.4,0.2-0.6
			C513.6,74.5,513.8,74.4,513.9,74.3z"/>
		<path class="st1" d="M524.1,80.5c0-0.4,0-0.8-0.2-1.2c-0.1-0.1-0.2-0.2-0.3-0.3c-0.1-0.1-0.3-0.1-0.4-0.1
			c-0.5,0.1-0.9,0.3-1.2,0.6l0,0c-0.4,0.5-1,0.8-1.6,0.9c-0.1,0-0.3,0-0.4,0c-0.1,0-0.2-0.1-0.3-0.2c-0.1-0.1-0.2-0.2-0.2-0.3
			c0-0.1-0.1-0.2-0.1-0.4c0-0.6,0.4-1.1,1.2-1.6c0.9-0.5,2-0.7,3-0.7c0.9-0.1,1.9,0.2,2.7,0.7c0.3,0.3,0.5,0.6,0.7,1
			c0.1,0.4,0.2,0.8,0.2,1.2c0,0.3,0,0.7,0,1.2c0,0.5,0,0.8,0,1v1.3c0,0.2,0,0.3,0,0.5c0,0.1,0,0.2,0.2,0.2c0.2,0.1,0.4,0.2,0.5,0.2
			c0.3,0,0.5,0.3,0.5,0.5c0,0.2-0.1,0.4-0.2,0.6c-0.2,0.2-0.4,0.4-0.7,0.5c-0.2,0.1-0.5,0.3-0.8,0.3c-0.2,0.1-0.5,0.1-0.7,0.1
			c-0.2,0-0.4-0.1-0.5-0.1c-0.2-0.1-0.3-0.2-0.4-0.3l-0.5-0.5l-0.2,0.1c-0.7,0.5-1.5,0.8-2.4,0.8c-0.8,0-1.6-0.2-2.2-0.7
			c-0.3-0.2-0.5-0.6-0.6-0.9c-0.1-0.3-0.2-0.7-0.2-1.1c0-0.4,0.1-0.8,0.3-1.2c0.2-0.4,0.5-0.7,0.8-1c0.9-0.5,1.9-0.8,3-0.8h0.7h0.8
			L524.1,80.5z M524.1,82.6h-0.3h-0.4c-0.4,0-0.9,0.1-1.2,0.4c-0.1,0.1-0.3,0.3-0.3,0.5c-0.1,0.2-0.1,0.4-0.1,0.6
			c0,0.3,0.1,0.7,0.3,0.9c0.1,0.1,0.2,0.2,0.4,0.2c0.1,0.1,0.3,0.1,0.5,0.1c0.3,0,0.7-0.1,0.9-0.3c0.1-0.1,0.2-0.3,0.2-0.4
			c0-0.2,0.1-0.3,0.1-0.5V82.6z"/>
		<path class="st1" d="M532.4,84c0,0.3,0,0.7,0.2,1c0.1,0.1,0.3,0.2,0.5,0.3c0.1,0.1,0.2,0.1,0.3,0.3c0.1,0.1,0.1,0.2,0.1,0.4
			c0,0.3-0.2,0.5-0.5,0.6c-1.3,0.2-2.6,0.2-3.9,0c-0.4-0.1-0.5-0.3-0.5-0.6c0-0.1,0.1-0.3,0.1-0.4c0.1-0.1,0.2-0.2,0.3-0.3
			c0.2-0.1,0.3-0.2,0.5-0.3c0.1-0.2,0.1-0.5,0.1-0.7c0-0.4,0-1.3,0-2.8v-1.9c0-1.3,0-2.2,0-2.6c0-0.3,0-0.6-0.2-0.8
			c-0.2-0.1-0.4-0.2-0.6-0.2c-0.3-0.1-0.5-0.3-0.5-0.6c0-0.1,0-0.1,0-0.2c0-0.1,0.1-0.1,0.1-0.2c0.2-0.1,0.3-0.3,0.5-0.3
			c0.5-0.2,1-0.4,1.6-0.6c0.4-0.1,0.9-0.2,1.3-0.2c0.2,0,0.4,0,0.5,0.2c0.1,0.2,0.2,0.5,0.1,0.7v0.5c0,1.9,0,3.8,0,5.8
			C532.3,82.4,532.3,83.4,532.4,84z"/>
		<path class="st1" d="M543.5,81.9c0,0.3,0,0.5,0,0.6c0,0.7,0,1.2,0,1.6c0,0.2,0.1,0.5,0.1,0.7c0.2,0.1,0.4,0.2,0.6,0.3
			c0.2,0,0.3,0.1,0.4,0.3c0.1,0.1,0.1,0.3,0.1,0.4c0,0.3-0.2,0.5-0.6,0.7c-0.7,0.2-1.5,0.2-2.2,0.2c-0.8,0.1-1.6,0-2.4-0.2
			c-0.2,0-0.3-0.1-0.4-0.2c-0.1-0.1-0.2-0.3-0.2-0.4c0-0.2,0.1-0.3,0.1-0.4c0.1-0.1,0.2-0.2,0.4-0.3c0.2-0.1,0.4-0.2,0.5-0.3
			c0.2-0.5,0.2-1,0.2-1.5c0-0.9,0-2,0-3.5c0-1.4,0-2.1,0-2.8c0-0.4-0.1-0.8-0.2-1.2c-0.2-0.1-0.3-0.3-0.5-0.3
			c-0.1,0-0.3-0.1-0.4-0.3c-0.1-0.1-0.1-0.3-0.1-0.4c0-0.1,0-0.2,0.1-0.4c0.1-0.1,0.2-0.2,0.3-0.3c0.3-0.2,0.7-0.2,1-0.2h1.9h1.8
			h1.5c1.1-0.1,2.3,0.2,3.2,0.9c0.4,0.3,0.6,0.7,0.8,1.2c0.2,0.5,0.3,0.9,0.2,1.4c0,0.5-0.1,1.1-0.3,1.6s-0.5,1-0.9,1.3
			c-1,0.8-2.2,1.1-3.5,1h-0.8h-1L543.5,81.9z M543.5,79.6h0.7c0.8,0.1,1.5-0.1,2.2-0.5c0.2-0.2,0.4-0.4,0.5-0.7
			c0.1-0.3,0.2-0.6,0.1-0.9c0-0.3,0-0.6-0.1-0.8c-0.1-0.3-0.3-0.5-0.5-0.7c-0.5-0.4-1.1-0.5-1.7-0.5c-0.2-0.1-0.5-0.1-0.7,0
			c-0.1,0-0.1,0.1-0.2,0.1c-0.1,0.1-0.1,0.1-0.1,0.2c0,0.2,0,0.5,0,0.7c0,0.3,0,1.1,0,2.2L543.5,79.6z"/>
		<path class="st1" d="M554.9,81.9v0.6c0,0.5,0,1,0,1.6c0,0.2,0,0.5,0.1,0.7c0.2,0.1,0.3,0.3,0.5,0.3c0.1,0.1,0.3,0.2,0.4,0.3
			c0.1,0.1,0.1,0.3,0.2,0.4c0,0.3-0.2,0.5-0.6,0.7c-0.7,0.2-1.5,0.2-2.2,0.2c-0.8,0.1-1.6,0-2.4-0.2c-0.2,0-0.3-0.1-0.4-0.2
			c-0.1-0.1-0.2-0.3-0.2-0.4c0-0.2,0.1-0.3,0.1-0.4c0.1-0.1,0.2-0.2,0.4-0.3c0.2-0.1,0.4-0.2,0.6-0.3c0.2-0.5,0.2-1,0.2-1.5
			c0-0.9,0-2,0-3.5c0-1.4,0-2.1,0-2.8c0-0.4,0-0.8-0.2-1.2c-0.2-0.1-0.4-0.3-0.6-0.3c-0.1-0.1-0.3-0.2-0.4-0.3
			c-0.1-0.1-0.1-0.3-0.1-0.4c0-0.1,0-0.2,0.1-0.4s0.2-0.2,0.3-0.3c0.3-0.2,0.7-0.2,1-0.2h1.9h1.7h1.6c1.1-0.1,2.3,0.2,3.2,0.9
			c0.4,0.3,0.7,0.7,0.9,1.1c0.2,0.4,0.3,0.9,0.2,1.4c0,0.7-0.2,1.5-0.6,2.1c-0.4,0.6-1,1-1.7,1.1l0,0c0.3,0.1,0.5,0.2,0.8,0.3
			c0.2,0.1,0.4,0.3,0.6,0.5c0,0.1,0.2,0.3,0.3,0.5c0.1,0.2,0.2,0.4,0.3,0.5c0.1,0.4,0.2,0.8,0.3,1.2c0.1,0.4,0.2,0.7,0.3,1.1
			c0.2,0.2,0.4,0.4,0.7,0.4h0.2c0.2,0,0.3,0.1,0.4,0.2c0.1,0.1,0.1,0.2,0.1,0.4c0,0.2-0.1,0.3-0.2,0.5c-0.1,0.1-0.2,0.2-0.4,0.3
			c-0.5,0.2-1,0.3-1.6,0.3c-0.4,0-0.8,0-1.2-0.1c-0.3-0.1-0.6-0.2-0.8-0.5c-0.5-0.6-0.9-1.4-1-2.2c0-0.2-0.1-0.4-0.2-0.6
			c-0.2-0.7-0.5-1.3-1-1.9c-0.4-0.3-1-0.5-1.5-0.4h-0.5C554.9,81.4,554.9,81.6,554.9,81.9z M554.9,79.6h0.8c0.7,0.1,1.4-0.1,2-0.5
			c0.2-0.2,0.4-0.4,0.5-0.7c0.1-0.3,0.1-0.5,0.1-0.8c0-0.3,0-0.5-0.1-0.8c-0.1-0.3-0.3-0.5-0.4-0.7c-0.5-0.4-1-0.6-1.6-0.5
			c-0.3,0-0.5,0-0.8,0.1c-0.1,0-0.1,0.1-0.2,0.1c-0.1,0.1-0.1,0.1-0.1,0.2c0,0.2,0,0.4,0,0.7c0,0.3,0,1,0,2.1L554.9,79.6z"/>
		<path class="st1" d="M568.4,86.7c-0.8-0.2-1.6-0.7-2.3-1.2c-0.7-0.6-1.2-1.3-1.6-2c-0.5-1-0.7-2.1-0.7-3.2c0-0.7,0.1-1.4,0.3-2.1
			c0.2-0.7,0.5-1.3,1-1.8c0.6-0.8,1.4-1.4,2.4-1.8c1.7-0.7,3.5-0.8,5.3-0.3c0.7,0.2,1.3,0.6,1.9,1c0.8,0.6,1.4,1.4,1.9,2.4
			c0.5,1,0.7,2.1,0.7,3.1c0,0.7-0.1,1.4-0.3,2c-0.2,0.6-0.5,1.2-0.9,1.8c-0.6,0.8-1.4,1.5-2.4,1.9c-1,0.4-2,0.7-3.1,0.6
			C569.8,87,569.1,86.9,568.4,86.7L568.4,86.7z M573.3,79.3c-0.2-0.7-0.5-1.4-0.9-2c-0.3-0.5-0.7-0.9-1.2-1.3
			c-0.4-0.3-0.9-0.4-1.3-0.4c-0.4,0-0.7,0.1-1.1,0.3s-0.6,0.4-0.8,0.7c-0.5,0.8-0.7,1.7-0.7,2.6c0,0.8,0.1,1.6,0.3,2.4
			c0.2,0.7,0.5,1.4,0.9,2.1c0.3,0.5,0.7,0.9,1.2,1.2c0.4,0.3,0.9,0.4,1.4,0.4c0.4,0,0.7-0.1,1.1-0.2c0.3-0.2,0.6-0.4,0.8-0.7
			c0.5-0.8,0.7-1.7,0.7-2.6C573.6,80.9,573.5,80.1,573.3,79.3L573.3,79.3z"/>
		<path class="st1" d="M582.5,86.7c-0.7-0.2-1.3-0.5-1.8-0.9c-0.9-0.6-1.5-1.4-2-2.4c-0.5-1-0.7-2.1-0.7-3.2c0-0.7,0.1-1.4,0.3-2.1
			c0.2-0.7,0.5-1.3,0.9-1.8c0.6-0.8,1.4-1.4,2.4-1.8c1.7-0.7,3.5-0.8,5.2-0.3c0.7,0.2,1.3,0.6,1.9,1c0.8,0.6,1.5,1.4,1.9,2.4
			c0.4,1,0.7,2.1,0.7,3.1c0,0.7-0.1,1.4-0.3,2c-0.2,0.6-0.5,1.2-0.9,1.8c-0.6,0.8-1.4,1.5-2.4,1.9c-1,0.4-2,0.7-3,0.6
			C583.9,87,583.2,86.9,582.5,86.7L582.5,86.7z M587.4,79.3c-0.2-0.7-0.5-1.4-0.9-2c-0.3-0.5-0.7-0.9-1.2-1.3
			c-0.4-0.3-0.9-0.4-1.4-0.4c-0.4,0-0.7,0.1-1,0.3c-0.3,0.2-0.6,0.4-0.8,0.7c-0.5,0.8-0.8,1.7-0.7,2.6c0,0.8,0.1,1.6,0.3,2.4
			c0.2,0.7,0.5,1.4,1,2.1c0.3,0.5,0.7,0.9,1.2,1.2c0.4,0.3,0.9,0.4,1.4,0.4c0.4,0,0.7-0.1,1-0.2c0.3-0.2,0.6-0.4,0.8-0.7
			c0.5-0.8,0.8-1.7,0.7-2.6C587.8,80.9,587.7,80.1,587.4,79.3L587.4,79.3z"/>
		<path class="st1" d="M601.3,73.9h0.5c0.3,0,0.5,0.2,0.7,0.7c0.2,0.5,0.3,1.1,0.3,1.7c0,0.2,0,0.5-0.2,0.7
			c-0.1,0.1-0.1,0.1-0.2,0.2c-0.1,0-0.2,0.1-0.3,0c-0.1,0-0.2,0-0.3,0c-0.1-0.1-0.3-0.2-0.4-0.4v-0.2c-0.2-0.2-0.4-0.4-0.6-0.6
			c-0.3-0.1-0.6-0.2-0.9-0.3c-0.5,0-1,0-1.5,0c-0.4,0-0.9,0-1.3,0c-0.2,0-0.4,0.1-0.4,0.3c0,0.3,0,0.6,0,1c0,0.5,0,1.1,0,1.8
			c0,0.7,0.3,0.6,1,0.6c0.5,0,0.9,0,1.4-0.1c0.1-0.1,0.2-0.1,0.3-0.2c0.1-0.1,0.1-0.2,0.1-0.3c0-0.1,0-0.3,0-0.4
			c0-0.5,0.3-0.8,0.6-0.8c0.2,0,0.3,0.1,0.4,0.2c0.1,0.1,0.2,0.2,0.2,0.4c0.2,0.7,0.2,1.4,0.2,2c0,0.7,0,1.5-0.2,2.2
			c0,0.2-0.1,0.3-0.3,0.4c-0.1,0.1-0.3,0.2-0.5,0.2c-0.3,0-0.5-0.2-0.6-0.7c0-0.2,0-0.4,0-0.5c0-0.1-0.1-0.2-0.1-0.3
			c-0.1-0.1-0.2-0.2-0.3-0.2c-0.4-0.1-0.9-0.2-1.3-0.1h-0.2c-0.4,0-0.6,0-0.7,0c-0.1,0.2-0.1,0.4-0.1,0.7c0,1.3,0,2.2,0,2.5
			c0,0.2,0.1,0.5,0.1,0.7c0.1,0.1,0.3,0.2,0.5,0.3h0.2c0.2,0.1,0.3,0.2,0.4,0.3c0,0.1,0,0.3,0,0.4c0,0.2,0,0.3-0.1,0.4
			c-0.1,0.1-0.2,0.2-0.4,0.2c-0.8,0.2-1.6,0.2-2.4,0.2c-0.8,0-1.6,0-2.4-0.2c-0.2,0-0.3-0.1-0.4-0.2c-0.1-0.1-0.1-0.3-0.1-0.4
			c0-0.2,0.1-0.3,0.1-0.4c0.1-0.1,0.2-0.2,0.4-0.3c0.2-0.1,0.4-0.2,0.6-0.3c0.1-0.5,0.2-1,0.2-1.5c0-0.9,0-2,0-3.5
			c0-1.4,0-2.1,0-2.8c0-0.4-0.1-0.8-0.2-1.2c-0.2-0.1-0.4-0.3-0.6-0.3c-0.1-0.1-0.3-0.2-0.4-0.3s-0.1-0.3-0.1-0.4
			c0-0.1,0-0.3,0.1-0.4c0.1-0.1,0.2-0.2,0.3-0.3c0.8-0.2,1.6-0.2,2.4-0.2h5.6C600.8,74,601.1,74,601.3,73.9L601.3,73.9z"/>
		<path class="st1" d="M612.7,81.9c0,0.3,0,0.5,0,0.6c0,0.7,0,1.2,0,1.6c0,0.2,0,0.5,0.1,0.7c0.2,0.1,0.4,0.2,0.6,0.3
			c0.1,0.1,0.3,0.2,0.4,0.3c0.1,0.1,0.1,0.3,0.2,0.4c0,0.3-0.2,0.5-0.6,0.7c-0.7,0.2-1.5,0.2-2.2,0.2c-0.8,0.1-1.6,0-2.4-0.2
			c-0.2,0-0.3-0.1-0.4-0.2c-0.1-0.1-0.2-0.3-0.2-0.4c0-0.2,0.1-0.3,0.1-0.4s0.2-0.2,0.4-0.3c0.2-0.1,0.4-0.2,0.6-0.3
			c0.2-0.5,0.2-1,0.2-1.5c0-0.9,0-2,0-3.5c0-1.4,0-2.1,0-2.8c0-0.4,0-0.8-0.2-1.2c-0.2-0.1-0.4-0.3-0.6-0.3
			c-0.1-0.1-0.3-0.2-0.4-0.3c-0.1-0.1-0.1-0.3-0.1-0.4c0-0.1,0-0.2,0.1-0.4c0.1-0.1,0.2-0.2,0.3-0.3c0.3-0.2,0.7-0.2,1-0.2h1.9h1.8
			h1.5c1.1-0.1,2.3,0.2,3.2,0.9c0.4,0.3,0.6,0.7,0.8,1.2c0.2,0.5,0.3,0.9,0.2,1.4c0,0.5-0.1,1.1-0.3,1.6s-0.5,1-0.9,1.3
			c-1,0.8-2.2,1.1-3.5,1h-0.9h-1L612.7,81.9z M612.7,79.6h0.7c0.8,0.1,1.5-0.1,2.2-0.5c0.2-0.2,0.4-0.4,0.5-0.7
			c0.1-0.3,0.2-0.6,0.1-0.9c0-0.3,0-0.6-0.1-0.8c-0.1-0.3-0.3-0.5-0.5-0.7c-0.5-0.4-1.1-0.5-1.7-0.5c-0.2,0-0.5,0-0.7,0
			c-0.1,0-0.1,0.1-0.2,0.1c-0.1,0.1-0.1,0.1-0.1,0.2c0,0.2,0,0.5,0,0.7c0,0.3,0,1.1,0,2.2L612.7,79.6z"/>
		<path class="st1" d="M628.9,73.9h0.5c0.3,0,0.5,0.2,0.7,0.7c0.2,0.5,0.3,1.1,0.3,1.7c0,0.2-0.1,0.5-0.2,0.7
			c-0.1,0.1-0.1,0.1-0.2,0.2c-0.1,0-0.2,0.1-0.3,0c-0.1,0-0.2,0-0.3,0c-0.1-0.1-0.3-0.2-0.4-0.4c0-0.1,0-0.1,0-0.2
			c-0.1-0.2-0.3-0.4-0.6-0.6c-0.3-0.1-0.6-0.2-0.9-0.3c-0.5,0-1,0-1.5,0c-0.4,0-0.9,0-1.3,0c-0.1,0-0.2,0-0.2,0.1
			c-0.1,0.1-0.1,0.1-0.2,0.2c0,0.3,0,0.6,0,1c0,0.5,0,1.1,0,1.8c0,0.7,0.3,0.6,1,0.6c0.4,0,0.9,0,1.3-0.1c0.1-0.1,0.2-0.1,0.3-0.2
			c0.1-0.1,0.1-0.2,0.1-0.3c0,0,0-0.2,0-0.4c0-0.2,0.3-0.8,0.6-0.8c0.4,0,0.5,0.2,0.7,0.6c0.2,0.7,0.2,1.4,0.2,2
			c0,0.7,0,1.5-0.2,2.2c0,0.2-0.1,0.3-0.3,0.4c-0.1,0.1-0.3,0.2-0.5,0.2c-0.3,0-0.5-0.2-0.6-0.7c0-0.2,0-0.4,0-0.5
			c0-0.1-0.1-0.2-0.1-0.3c-0.1-0.1-0.2-0.2-0.3-0.2c-0.4-0.1-0.9-0.2-1.3-0.1h-0.2c-0.4,0-0.6,0-0.7,0c-0.1,0.2-0.1,0.4,0,0.7
			c0,1.3,0,2.2,0,2.5c0,0.2,0,0.5,0.1,0.7c0.1,0.1,0.3,0.2,0.4,0.3h0.2c0.1,0.1,0.3,0.2,0.4,0.3c0,0.1,0,0.3,0,0.4
			c0,0.2,0,0.3-0.1,0.4c-0.1,0.1-0.2,0.2-0.4,0.2c-0.8,0.2-1.6,0.2-2.4,0.2c-0.8,0-1.6,0-2.4-0.2c-0.2,0-0.3-0.1-0.4-0.2
			c-0.1-0.1-0.2-0.3-0.2-0.4c0-0.2,0.1-0.3,0.1-0.4c0.1-0.1,0.2-0.2,0.4-0.3c0.2-0.1,0.4-0.2,0.6-0.3c0.2-0.5,0.2-1,0.2-1.5
			c0-0.9,0-2,0-3.5c0-1.4,0-2.1,0-2.8c0-0.4-0.1-0.8-0.2-1.2c-0.2-0.1-0.4-0.3-0.6-0.3c-0.1-0.1-0.3-0.2-0.4-0.3s-0.1-0.3-0.1-0.4
			c0-0.1,0-0.3,0.1-0.4c0.1-0.1,0.2-0.2,0.3-0.2c0.8-0.2,1.6-0.2,2.4-0.2h5.6C628.5,74,628.7,74,628.9,73.9L628.9,73.9z"/>
		<path class="st1" d="M635.2,81.9v0.6c0,0.5,0,1,0,1.6c0,0.2,0,0.5,0.1,0.7c0.2,0.1,0.4,0.3,0.6,0.3c0.1,0.1,0.3,0.2,0.4,0.3
			s0.1,0.3,0.1,0.4c0,0.3-0.2,0.5-0.6,0.7c-1.5,0.3-3,0.3-4.5,0c-0.2,0-0.3-0.1-0.4-0.2c-0.1-0.1-0.2-0.3-0.2-0.4
			c0-0.2,0.1-0.3,0.1-0.4s0.2-0.2,0.4-0.3c0.2-0.1,0.4-0.2,0.6-0.3c0.1-0.5,0.2-1,0.2-1.5c0-0.9,0-2,0-3.5c0-1.4,0-2.1,0-2.8
			c0-0.4-0.1-0.8-0.2-1.2c-0.2-0.1-0.4-0.2-0.6-0.3c-0.1-0.1-0.3-0.2-0.4-0.3s-0.1-0.3-0.1-0.4c0-0.1,0-0.2,0.1-0.4
			c0.1-0.1,0.2-0.2,0.3-0.3c0.3-0.2,0.7-0.2,1-0.2h1.9h1.8h1.6c1.1-0.1,2.3,0.2,3.2,0.9c0.4,0.3,0.7,0.7,0.8,1.2
			c0.2,0.5,0.3,1,0.2,1.4c0,0.5-0.1,1.1-0.3,1.6c-0.2,0.5-0.5,1-0.9,1.3c-1,0.7-2.2,1.1-3.4,1h-0.9h-1L635.2,81.9z M635.2,79.6h0.7
			c0.8,0.1,1.5-0.1,2.2-0.5c0.2-0.2,0.4-0.4,0.5-0.7s0.2-0.6,0.1-0.9c0-0.3,0-0.5-0.1-0.8c-0.1-0.3-0.3-0.5-0.5-0.7
			c-0.5-0.4-1.1-0.5-1.7-0.5c-0.2,0-0.5,0-0.7,0c-0.2,0.1-0.3,0.2-0.3,0.4c0,0.2,0,0.5,0,0.7c0,0.3,0,1.1,0,2.2L635.2,79.6z"/>
		<path class="st1" d="M281.9,59.4c0,0.8-0.5,1.1-1.6,1.1c-1.8-0.1-5.3-0.3-10.4-0.3c-5.2,0-8.5,0.2-10.4,0.3c-1,0-1.6-0.3-1.6-1.1
			s0.5-1,1.5-1.3c1.8-0.5,2-2,2-4.9V18.2l-15.6,41.5c-0.1,0.3-0.3,0.5-0.5,0.7c-0.2,0.2-0.5,0.2-0.8,0.2H243c-0.7,0-0.9-0.3-1.1-0.8
			L224.3,18v31.9c0,6.3,2,7.7,4.5,8.3c0.9,0.2,1.5,0.5,1.5,1.3s-0.5,1.1-1.6,1.1c-1.7,0-3.7-0.2-6-0.2c-2.3,0-4.5,0.1-5.9,0.2
			c-1.1,0-1.6-0.3-1.6-1.1s0.5-1,1.5-1.3c2.4-0.8,3.4-3.3,3.4-8.3v-41c-0.6-0.5-1.3-0.9-2.1-1.1c-0.9-0.2-1.6-0.6-1.6-1.4
			c0-0.8,0.5-1.1,1.6-1c1.8,0.2,5.3,0.3,10.4,0.3c2.4,0,4.8-0.1,7.1-0.3c0.4-0.1,0.8,0,1.1,0.2c0.3,0.2,0.6,0.5,0.8,0.9l12.5,30.4
			l11.5-30.7c0.1-0.2,0.4-0.4,0.6-0.5c0.3-0.1,0.5-0.1,0.8-0.1c1.4,0,3.6,0.2,7,0.3c3.5,0.1,7,0,10.4-0.3c1.1,0,1.6,0.2,1.6,1
			s-0.5,1.1-1.3,1.2c-2,0.5-2.2,2-2.2,5.1v40.3c0,2.9,0.2,4.5,2,4.9C281.4,58.4,281.9,58.7,281.9,59.4z"/>
		<path class="st1" d="M329.4,38.9c0.1,3-0.4,6.1-1.5,8.9c-1.1,2.8-2.8,5.4-4.9,7.6c-2.1,2.2-4.7,3.9-7.5,5.1
			c-2.8,1.2-5.8,1.8-8.9,1.8c-3,0-6.1-0.6-8.9-1.8c-2.8-1.2-5.3-2.9-7.5-5.1c-2.1-2.2-3.8-4.8-4.9-7.6c-1.1-2.8-1.6-5.9-1.5-8.9
			c0-12.5,8.6-22.6,22.7-22.6c3-0.1,6,0.4,8.8,1.5c2.8,1.1,5.4,2.8,7.5,4.9s3.8,4.7,4.9,7.5C329.1,32.9,329.6,35.9,329.4,38.9
			L329.4,38.9z M300.4,40.2c2,10.4,5.7,19.1,10.7,18.2c4.9-1,4-10.7,2-20.9c-2-10.2-5.7-19.2-10.7-18.2
			C297.5,20.4,298.4,30,300.4,40.2L300.4,40.2z"/>
		<path class="st1" d="M378.9,38.9c0.1,3-0.4,6.1-1.5,8.9c-1.1,2.8-2.8,5.4-4.9,7.6c-2.1,2.2-4.6,3.9-7.5,5.1
			c-2.8,1.2-5.8,1.8-8.9,1.8s-6.1-0.6-8.9-1.8c-2.8-1.2-5.3-2.9-7.5-5.1c-2.1-2.2-3.8-4.8-4.9-7.6c-1.1-2.8-1.6-5.9-1.5-8.9
			c0-12.5,8.6-22.6,22.7-22.6c3-0.1,6,0.4,8.8,1.5c2.8,1.1,5.4,2.8,7.5,4.9c2.1,2.1,3.8,4.7,4.9,7.5C378.5,32.9,379,35.9,378.9,38.9
			L378.9,38.9z M349.9,40.2c2,10.4,5.7,19.1,10.7,18.2s4-10.7,2-20.9c-2-10.2-5.7-19.2-10.7-18.2C347,20.4,347.9,30,349.9,40.2
			L349.9,40.2z"/>
		<path class="st1" d="M432.1,59.4c0,0.8-0.6,1.1-1.6,1.1c-1.7-0.1-4.8-0.3-9.8-0.3s-8.2,0.2-9.8,0.3c-1,0-1.6-0.3-1.6-1.1
			s0.5-1,1.4-1.3c1.8-0.5,2-2,2-4.9v-19c0-5.3-1.1-10.3-5.8-10.3c-4.7,0-6.4,4.9-6.4,10v19.4c0,2.9,0.2,4.5,2,4.9
			c0.9,0.2,1.5,0.5,1.5,1.3c0,0.8-0.6,1.1-1.6,1.1c-1.7-0.1-4.8-0.3-9.8-0.3s-8.2,0.2-9.8,0.3c-1,0-1.6-0.3-1.6-1.1
			c0-0.8,0.5-1,1.5-1.3c1.7-0.5,2-2,2-4.9V30c0-3-0.2-4.5-2.1-4.9c-0.9-0.2-1.5-0.6-1.5-1.4c0-0.8,0.5-1.2,1.4-1.4
			c5.3-0.9,10.5-2.6,15.3-5c1.1-0.6,1.7,0,1.8,1.1l0.7,5.5c1.2-2.4,3.1-4.3,5.4-5.7c2.3-1.3,5-2,7.6-1.8c10.8,0,15.4,6.2,15.4,17.9
			v19c0,2.9,0.2,4.5,2,4.9C431.5,58.4,432.1,58.7,432.1,59.4z"/>
		<path class="st1" d="M484.1,41.6c-0.6,14.7-10.8,21.6-23.1,19.5c-3-0.4-5.7-2-7.5-4.3v2.4c0,0.2,0,0.4-0.1,0.6
			c-0.1,0.2-0.2,0.4-0.4,0.5c-0.2,0.1-0.3,0.2-0.6,0.3c-0.2,0-0.4,0-0.6,0c-1.4,0-3.7-0.2-7.3-0.2c-4.2,0-7.1,0.1-9,0.3
			c-1.1,0-1.6-0.3-1.6-1.1c0-0.8,0.5-1,1.5-1.3c1.8-0.5,2-2,2-4.9V17.5c0-3-0.2-4.5-2-4.9c-0.9-0.2-1.5-0.5-1.5-1.4
			c0-0.4,0.1-0.7,0.4-1c0.3-0.3,0.6-0.4,1-0.4c5.6-0.9,11.1-2.6,16.3-5c1.1-0.5,1.8,0,1.8,1.1v16.6c1.3-2,3.1-3.6,5.2-4.7
			c2.1-1.1,4.5-1.6,6.9-1.4C478.1,16.3,484.7,26.9,484.1,41.6z M467.7,38.1c-0.2-10.2-3.7-15.7-8.1-15.3c-4.4,0.4-6.9,6.3-6.3,19.4
			c0.5,10,3.9,14.6,8.4,14.2C466.1,56.1,468,48.2,467.7,38.1z"/>
		<path class="st1" d="M510.2,59.4c0,0.8-0.6,1.1-1.6,1.1c-1.7-0.1-4.8-0.3-9.8-0.3c-5.1,0-8.1,0.2-9.8,0.3c-1,0-1.6-0.3-1.6-1.1
			s0.5-1,1.5-1.3c1.7-0.5,2-2,2-4.9V29.9c0-2.9-0.2-4.5-2-4.9c-0.9-0.2-1.5-0.6-1.5-1.4c0-0.8,0.5-1.2,1.4-1.4
			c5.6-0.9,11.1-2.6,16.2-5c1.1-0.5,1.8,0,1.8,1.1v34.9c0,2.9,0.2,4.5,2,4.9C509.7,58.4,510.2,58.7,510.2,59.4z M488.3,8
			c0-4.5,4.5-8,9.9-8s10,3.6,10,8c0,4.5-4.5,7.9-10,7.9C492.7,15.9,488.3,12.5,488.3,8L488.3,8z"/>
		<path class="st1" d="M543.3,32.1c-7.1-0.2-3.7-8-8.4-8c-2.4,0-2.6,4.5-2.6,7.5v21.6c0,3.3,0.9,4.7,3.4,5c1,0.2,1.5,0.5,1.5,1.2
			s-0.5,1.1-1.6,1.1c-1.9-0.1-5.5-0.3-10.7-0.3s-8.6,0.2-10.4,0.3c-1,0-1.6-0.3-1.6-1.1s0.5-1,1.5-1.3c1.8-0.5,2-2,2-4.9V29.9
			c0-3-0.2-4.5-2-4.9c-0.9-0.2-1.5-0.6-1.5-1.4c0-0.8,0.5-1.2,1.4-1.4c5.3-1,10.5-2.6,15.3-5c1.1-0.6,1.7,0,1.8,1.1l0.7,5.6
			c1.5-4.2,4.4-7.6,9.5-7.6C554.5,16.3,553.4,32.4,543.3,32.1z"/>
		<path class="st1" d="M602.1,58.7c0,0.8-0.5,1.1-1.6,1.1c-3.7,0-12.7,0.5-16.3,0.9c-0.2,0.1-0.4,0.1-0.6,0c-0.2,0-0.4-0.1-0.6-0.3
			c-0.2-0.1-0.3-0.3-0.4-0.5c-0.1-0.2-0.1-0.4-0.1-0.6v-3.9c-1.3,2-3.1,3.6-5.2,4.7s-4.5,1.6-6.9,1.4c-12.6,0-19.2-10.6-18.6-25.4
			c0.6-14.7,10.8-21.6,23.1-19.5c3,0.4,5.7,2,7.5,4.3v-3.6c0-2.9-0.2-4.5-2-4.9c-0.9-0.2-1.5-0.6-1.5-1.4c0-0.8,0.5-1.2,1.4-1.4
			c5.6-0.9,11.1-2.6,16.2-5c1.1-0.5,1.8,0,1.8,1.1v46.7c0,3,0.2,4.5,2.1,4.9C601.6,57.6,602.1,57.9,602.1,58.7z M582.8,35.5
			c-0.5-10-4-14.6-8.4-14.2c-4.4,0.4-6.3,8.3-6.1,18.4c0.2,10.1,3.7,15.7,8.1,15.3C580.9,54.6,583.3,48.7,582.8,35.5L582.8,35.5z"/>
		<path class="st1" d="M636,29.7c-10,0-4.8-10.3-12.1-10.9c-6.5-0.5-7.6,6.1-4.5,8.7c8.5,7,24.7,7.1,23.8,20.4
			c-0.4,6.1-4.8,13.8-20.6,13.8c-20.9,0-21.8-15-13.3-15.3c9.5-0.4,4.8,12.9,13.3,12.9c1.1,0.1,2.1-0.2,3-0.7
			c0.9-0.5,1.7-1.3,2.2-2.2c0.5-0.9,0.8-2,0.7-3c-0.1-1.1-0.4-2.1-1-2.9c-4.8-6.6-22.6-6.1-22.5-20.2c0-8.2,7.8-13.8,19-13.8
			C644.8,16.3,643.6,29.7,636,29.7z"/>
	</g>
</g>
<text transform="matrix(1 0 0 1 0 60.1855)" class="st2 st3 st4">TRON</text>
</svg>
